<svg width="159" height="64" viewBox="0 0 159 64" fill="none" xmlns="http://www.w3.org/2000/svg">
<g filter="url(#filter0_di_3_26)">
<circle cx="128" cy="27" r="12" fill="white"/>
</g>
<rect x="125.391" y="20.2175" width="5.21739" height="13.5652" rx="0.782609" fill="url(#paint0_linear_3_26)"/>
<rect x="134.783" y="24.3914" width="5.21739" height="13.5652" rx="0.782609" transform="rotate(90 134.783 24.3914)" fill="url(#paint1_linear_3_26)"/>
<path d="M6.784 55.128V50.904H11.616C12.832 50.904 13.9093 50.7227 14.848 50.36C15.808 49.976 16.6187 49.4427 17.28 48.76C17.9413 48.0773 18.4427 47.2773 18.784 46.36C19.1467 45.4213 19.328 44.3867 19.328 43.256C19.328 42.0827 19.1467 41.0373 18.784 40.12C18.4427 39.1813 17.9413 38.3813 17.28 37.72C16.6187 37.0587 15.808 36.5573 14.848 36.216C13.9093 35.8747 12.832 35.704 11.616 35.704H6.784V31.48H11.328C13.44 31.48 15.2853 31.7893 16.864 32.408C18.4427 33.0267 19.7547 33.88 20.8 34.968C21.8453 36.0347 22.624 37.2613 23.136 38.648C23.6693 40.0133 23.936 41.432 23.936 42.904V43.608C23.936 45.016 23.6693 46.4027 23.136 47.768C22.624 49.1333 21.8453 50.3707 20.8 51.48C19.7547 52.5893 18.4427 53.4747 16.864 54.136C15.2853 54.7973 13.44 55.128 11.328 55.128H6.784ZM2.88 55.128V31.48H7.424V55.128H2.88ZM36.005 55.608C34.469 55.608 33.1143 55.3627 31.941 54.872C30.7677 54.3813 29.7757 53.72 28.965 52.888C28.1543 52.0347 27.5357 51.0747 27.109 50.008C26.7037 48.9413 26.501 47.832 26.501 46.68V46.008C26.501 44.8133 26.7143 43.6827 27.141 42.616C27.589 41.528 28.2183 40.568 29.029 39.736C29.861 38.8827 30.8637 38.2213 32.037 37.752C33.2103 37.2613 34.533 37.016 36.005 37.016C37.477 37.016 38.7997 37.2613 39.973 37.752C41.1463 38.2213 42.1383 38.8827 42.949 39.736C43.781 40.568 44.4103 41.528 44.837 42.616C45.2637 43.6827 45.477 44.8133 45.477 46.008V46.68C45.477 47.832 45.2637 48.9413 44.837 50.008C44.4317 51.0747 43.8237 52.0347 43.013 52.888C42.2023 53.72 41.2103 54.3813 40.037 54.872C38.8637 55.3627 37.5197 55.608 36.005 55.608ZM36.005 51.8C37.093 51.8 38.0103 51.5653 38.757 51.096C39.5037 50.6053 40.069 49.9547 40.453 49.144C40.837 48.312 41.029 47.3733 41.029 46.328C41.029 45.2613 40.8263 44.3227 40.421 43.512C40.037 42.68 39.461 42.0293 38.693 41.56C37.9463 41.0693 37.0503 40.824 36.005 40.824C34.9597 40.824 34.053 41.0693 33.285 41.56C32.5383 42.0293 31.9623 42.68 31.557 43.512C31.1517 44.3227 30.949 45.2613 30.949 46.328C30.949 47.3733 31.141 48.312 31.525 49.144C31.9303 49.9547 32.5063 50.6053 33.253 51.096C33.9997 51.5653 34.917 51.8 36.005 51.8ZM57.0838 55.608C55.5691 55.608 54.2571 55.352 53.1478 54.84C52.0598 54.328 51.1424 53.6453 50.3958 52.792C49.6704 51.9387 49.1264 50.9787 48.7638 49.912C48.4011 48.8453 48.2198 47.7573 48.2198 46.648V46.04C48.2198 44.8667 48.4011 43.7467 48.7638 42.68C49.1478 41.592 49.7131 40.632 50.4598 39.8C51.2064 38.9467 52.1238 38.2747 53.2118 37.784C54.3211 37.272 55.6011 37.016 57.0518 37.016C58.5664 37.016 59.9211 37.3147 61.1158 37.912C62.3104 38.488 63.2598 39.2987 63.9638 40.344C64.6891 41.3893 65.0944 42.6053 65.1798 43.992H60.8598C60.7531 43.096 60.3691 42.3493 59.7078 41.752C59.0678 41.1547 58.1824 40.856 57.0518 40.856C56.0704 40.856 55.2491 41.0907 54.5878 41.56C53.9478 42.0293 53.4678 42.68 53.1478 43.512C52.8278 44.3227 52.6678 45.2613 52.6678 46.328C52.6678 47.352 52.8171 48.28 53.1158 49.112C53.4358 49.944 53.9158 50.5947 54.5558 51.064C55.2171 51.5333 56.0598 51.768 57.0838 51.768C57.8518 51.768 58.5131 51.6293 59.0678 51.352C59.6224 51.0747 60.0598 50.6907 60.3798 50.2C60.7211 49.7093 60.9344 49.1547 61.0198 48.536H65.3398C65.2544 49.944 64.8384 51.1813 64.0918 52.248C63.3664 53.2933 62.3958 54.1147 61.1798 54.712C59.9851 55.3093 58.6198 55.608 57.0838 55.608ZM76.455 55.224C74.855 55.224 73.5323 55.0213 72.487 54.616C71.463 54.1893 70.695 53.4853 70.183 52.504C69.671 51.5013 69.415 50.1573 69.415 48.472L69.447 32.728H73.607L73.575 48.76C73.575 49.6133 73.799 50.2747 74.247 50.744C74.7163 51.192 75.3777 51.416 76.231 51.416H78.951V55.224H76.455ZM66.663 40.888V37.624H78.951V40.888H66.663ZM90.9425 55.608C89.4065 55.608 88.0518 55.3627 86.8785 54.872C85.7052 54.3813 84.7132 53.72 83.9025 52.888C83.0918 52.0347 82.4732 51.0747 82.0465 50.008C81.6412 48.9413 81.4385 47.832 81.4385 46.68V46.008C81.4385 44.8133 81.6518 43.6827 82.0785 42.616C82.5265 41.528 83.1558 40.568 83.9665 39.736C84.7985 38.8827 85.8012 38.2213 86.9745 37.752C88.1478 37.2613 89.4705 37.016 90.9425 37.016C92.4145 37.016 93.7372 37.2613 94.9105 37.752C96.0838 38.2213 97.0758 38.8827 97.8865 39.736C98.7185 40.568 99.3478 41.528 99.7745 42.616C100.201 43.6827 100.415 44.8133 100.415 46.008V46.68C100.415 47.832 100.201 48.9413 99.7745 50.008C99.3692 51.0747 98.7612 52.0347 97.9505 52.888C97.1398 53.72 96.1478 54.3813 94.9745 54.872C93.8012 55.3627 92.4572 55.608 90.9425 55.608ZM90.9425 51.8C92.0305 51.8 92.9478 51.5653 93.6945 51.096C94.4412 50.6053 95.0065 49.9547 95.3905 49.144C95.7745 48.312 95.9665 47.3733 95.9665 46.328C95.9665 45.2613 95.7638 44.3227 95.3585 43.512C94.9745 42.68 94.3985 42.0293 93.6305 41.56C92.8838 41.0693 91.9878 40.824 90.9425 40.824C89.8972 40.824 88.9905 41.0693 88.2225 41.56C87.4758 42.0293 86.8998 42.68 86.4945 43.512C86.0892 44.3227 85.8865 45.2613 85.8865 46.328C85.8865 47.3733 86.0785 48.312 86.4625 49.144C86.8678 49.9547 87.4438 50.6053 88.1905 51.096C88.9372 51.5653 89.8545 51.8 90.9425 51.8ZM104.309 55V37.624H107.829V44.984H107.733C107.733 42.488 108.267 40.6 109.333 39.32C110.4 38.04 111.968 37.4 114.037 37.4H114.677V41.272H113.461C111.968 41.272 110.805 41.6773 109.973 42.488C109.163 43.2773 108.757 44.4293 108.757 45.944V55H104.309Z" fill="white"/>
<defs>
<filter id="filter0_di_3_26" x="97" y="0" width="62" height="62" filterUnits="userSpaceOnUse" color-interpolation-filters="sRGB">
<feFlood flood-opacity="0" result="BackgroundImageFix"/>
<feColorMatrix in="SourceAlpha" type="matrix" values="0 0 0 0 0 0 0 0 0 0 0 0 0 0 0 0 0 0 127 0" result="hardAlpha"/>
<feOffset dy="4"/>
<feGaussianBlur stdDeviation="9.5"/>
<feComposite in2="hardAlpha" operator="out"/>
<feColorMatrix type="matrix" values="0 0 0 0 0.0862745 0 0 0 0 0.470588 0 0 0 0 0.94902 0 0 0 0.2 0"/>
<feBlend mode="normal" in2="BackgroundImageFix" result="effect1_dropShadow_3_26"/>
<feBlend mode="normal" in="SourceGraphic" in2="effect1_dropShadow_3_26" result="shape"/>
<feColorMatrix in="SourceAlpha" type="matrix" values="0 0 0 0 0 0 0 0 0 0 0 0 0 0 0 0 0 0 127 0" result="hardAlpha"/>
<feOffset dy="4"/>
<feGaussianBlur stdDeviation="2"/>
<feComposite in2="hardAlpha" operator="arithmetic" k2="-1" k3="1"/>
<feColorMatrix type="matrix" values="0 0 0 0 0 0 0 0 0 0 0 0 0 0 0 0 0 0 0.12 0"/>
<feBlend mode="normal" in2="shape" result="effect2_innerShadow_3_26"/>
</filter>
<linearGradient id="paint0_linear_3_26" x1="126.696" y1="18.7103" x2="139.25" y2="25.627" gradientUnits="userSpaceOnUse">
<stop stop-color="#1678F2"/>
<stop offset="1" stop-color="#65A8FB"/>
</linearGradient>
<linearGradient id="paint1_linear_3_26" x1="136.087" y1="22.8841" x2="148.641" y2="29.8008" gradientUnits="userSpaceOnUse">
<stop stop-color="#1678F2"/>
<stop offset="1" stop-color="#65A8FB"/>
</linearGradient>
</defs>
</svg>
